<svg width="400" height="400" viewBox="0 0 400 400" fill="none" xmlns="http://www.w3.org/2000/svg">
<rect width="400" height="400" rx="32.1875" fill="white"/>
<path d="M184.373 252.062H254.738L134.002 360H216.457L291.33 291.913V360H347.611V197.964H184.373V252.062Z" fill="#010B21"/>
<path d="M102.694 199.348C102.694 119.526 156.493 82.3393 208.047 82.3393C259.6 82.3393 288.948 112.078 300.228 147.505L351.444 129.741C334.355 76.7878 285.064 32 208.064 32C125.558 32 48 93.6815 48 199.348C48 211.51 49.0132 223.04 50.8369 234.006L103.488 215.746C102.981 210.468 102.694 205.019 102.694 199.348Z" fill="#010B21"/>
</svg>
