<svg width="20" height="20" viewBox="0 0 20 20" fill="none" xmlns="http://www.w3.org/2000/svg">
<path fill-rule="evenodd" clip-rule="evenodd" d="M9.99935 4.99996C10.9198 4.99996 11.666 4.25377 11.666 3.33329C11.666 2.41282 10.9198 1.66663 9.99935 1.66663C9.07887 1.66663 8.33268 2.41282 8.33268 3.33329C8.33268 4.25377 9.07887 4.99996 9.99935 4.99996ZM15.8327 10.8333V9.16663C14.5493 9.18329 13.2577 8.54163 12.441 7.64163L11.366 6.44996C11.2243 6.29163 11.0493 6.16663 10.8577 6.07496C10.8535 6.07496 10.8514 6.07288 10.8493 6.07079C10.8473 6.06871 10.8452 6.06663 10.841 6.06663H10.8327C10.541 5.89996 10.2077 5.81663 9.84102 5.84996C8.96602 5.92496 8.33268 6.69996 8.33268 7.57496V12.5C8.33268 13.4166 9.08268 14.1666 9.99935 14.1666H14.166V18.3333H15.8327V13.75C15.8327 12.8333 15.0827 12.0833 14.166 12.0833H11.666V9.20829C12.741 10.1 14.3743 10.825 15.8327 10.8333ZM8.33268 16.6666C9.42435 16.6666 10.3493 15.9666 10.691 15H12.416C12.0327 16.9 10.3493 18.3333 8.33268 18.3333C6.03268 18.3333 4.16602 16.4666 4.16602 14.1666C4.16602 12.15 5.59935 10.4666 7.49935 10.0833V11.8083C6.53268 12.1583 5.83268 13.075 5.83268 14.1666C5.83268 15.55 6.94935 16.6666 8.33268 16.6666Z" fill="#3A3A3A"/>
</svg>
